<mxfile host="app.diagrams.net" modified="2022-10-15T03:54:57.017Z" agent="5.0 (Macintosh; Intel Mac OS X 10_15_7) AppleWebKit/537.36 (KHTML, like Gecko) Chrome/106.0.0.0 Safari/537.36" etag="ts7Ed3wq21cHXyG5qieV" version="20.4.0" type="github">
  <diagram id="QXaWsNWuf33ZRakW1J8c" name="第 1 页">
    <mxGraphModel dx="1678" dy="905" grid="1" gridSize="10" guides="1" tooltips="1" connect="1" arrows="1" fold="1" page="1" pageScale="1" pageWidth="1169" pageHeight="827" math="0" shadow="0">
      <root>
        <mxCell id="0" />
        <mxCell id="1" parent="0" />
        <mxCell id="pAgLassXSghN4ImzTMfQ-15" style="edgeStyle=orthogonalEdgeStyle;rounded=0;orthogonalLoop=1;jettySize=auto;html=1;fontSize=20;" edge="1" parent="1" source="pAgLassXSghN4ImzTMfQ-2" target="pAgLassXSghN4ImzTMfQ-3">
          <mxGeometry relative="1" as="geometry" />
        </mxCell>
        <mxCell id="pAgLassXSghN4ImzTMfQ-2" value="Fiber Root Node" style="rounded=0;whiteSpace=wrap;html=1;" vertex="1" parent="1">
          <mxGeometry x="240" y="160" width="120" height="60" as="geometry" />
        </mxCell>
        <mxCell id="pAgLassXSghN4ImzTMfQ-16" style="edgeStyle=orthogonalEdgeStyle;rounded=0;orthogonalLoop=1;jettySize=auto;html=1;fontSize=20;" edge="1" parent="1" source="pAgLassXSghN4ImzTMfQ-3" target="pAgLassXSghN4ImzTMfQ-4">
          <mxGeometry relative="1" as="geometry" />
        </mxCell>
        <mxCell id="pAgLassXSghN4ImzTMfQ-3" value="Root Fiber" style="rounded=0;whiteSpace=wrap;html=1;" vertex="1" parent="1">
          <mxGeometry x="240" y="280" width="120" height="60" as="geometry" />
        </mxCell>
        <mxCell id="pAgLassXSghN4ImzTMfQ-17" style="edgeStyle=orthogonalEdgeStyle;rounded=0;orthogonalLoop=1;jettySize=auto;html=1;fontSize=20;" edge="1" parent="1" source="pAgLassXSghN4ImzTMfQ-4" target="pAgLassXSghN4ImzTMfQ-5">
          <mxGeometry relative="1" as="geometry" />
        </mxCell>
        <mxCell id="pAgLassXSghN4ImzTMfQ-4" value="App" style="rounded=0;whiteSpace=wrap;html=1;" vertex="1" parent="1">
          <mxGeometry x="240" y="400" width="120" height="60" as="geometry" />
        </mxCell>
        <mxCell id="pAgLassXSghN4ImzTMfQ-18" style="edgeStyle=orthogonalEdgeStyle;rounded=0;orthogonalLoop=1;jettySize=auto;html=1;fontSize=20;" edge="1" parent="1" source="pAgLassXSghN4ImzTMfQ-5" target="pAgLassXSghN4ImzTMfQ-6">
          <mxGeometry relative="1" as="geometry" />
        </mxCell>
        <mxCell id="pAgLassXSghN4ImzTMfQ-25" style="edgeStyle=orthogonalEdgeStyle;rounded=0;orthogonalLoop=1;jettySize=auto;html=1;fontSize=20;" edge="1" parent="1" source="pAgLassXSghN4ImzTMfQ-5" target="pAgLassXSghN4ImzTMfQ-23">
          <mxGeometry relative="1" as="geometry" />
        </mxCell>
        <mxCell id="pAgLassXSghN4ImzTMfQ-28" style="edgeStyle=orthogonalEdgeStyle;rounded=0;orthogonalLoop=1;jettySize=auto;html=1;fontSize=20;" edge="1" parent="1" source="pAgLassXSghN4ImzTMfQ-5" target="pAgLassXSghN4ImzTMfQ-27">
          <mxGeometry relative="1" as="geometry" />
        </mxCell>
        <mxCell id="pAgLassXSghN4ImzTMfQ-5" value="div" style="rounded=0;whiteSpace=wrap;html=1;" vertex="1" parent="1">
          <mxGeometry x="240" y="520" width="120" height="60" as="geometry" />
        </mxCell>
        <mxCell id="pAgLassXSghN4ImzTMfQ-6" value="p" style="rounded=0;whiteSpace=wrap;html=1;" vertex="1" parent="1">
          <mxGeometry x="240" y="640" width="120" height="60" as="geometry" />
        </mxCell>
        <mxCell id="pAgLassXSghN4ImzTMfQ-7" value="Current Fiber" style="text;html=1;resizable=0;autosize=1;align=center;verticalAlign=middle;points=[];fillColor=none;strokeColor=none;rounded=0;fontSize=20;" vertex="1" parent="1">
          <mxGeometry x="230" y="80" width="140" height="40" as="geometry" />
        </mxCell>
        <mxCell id="pAgLassXSghN4ImzTMfQ-19" style="edgeStyle=orthogonalEdgeStyle;rounded=0;orthogonalLoop=1;jettySize=auto;html=1;fontSize=20;" edge="1" parent="1" source="pAgLassXSghN4ImzTMfQ-8" target="pAgLassXSghN4ImzTMfQ-9">
          <mxGeometry relative="1" as="geometry" />
        </mxCell>
        <mxCell id="pAgLassXSghN4ImzTMfQ-8" value="Fiber Root Node" style="rounded=0;whiteSpace=wrap;html=1;" vertex="1" parent="1">
          <mxGeometry x="800" y="161" width="120" height="60" as="geometry" />
        </mxCell>
        <mxCell id="pAgLassXSghN4ImzTMfQ-20" style="edgeStyle=orthogonalEdgeStyle;rounded=0;orthogonalLoop=1;jettySize=auto;html=1;fontSize=20;" edge="1" parent="1" source="pAgLassXSghN4ImzTMfQ-9" target="pAgLassXSghN4ImzTMfQ-10">
          <mxGeometry relative="1" as="geometry" />
        </mxCell>
        <mxCell id="pAgLassXSghN4ImzTMfQ-9" value="Root Fiber" style="rounded=0;whiteSpace=wrap;html=1;" vertex="1" parent="1">
          <mxGeometry x="800" y="281" width="120" height="60" as="geometry" />
        </mxCell>
        <mxCell id="pAgLassXSghN4ImzTMfQ-21" style="edgeStyle=orthogonalEdgeStyle;rounded=0;orthogonalLoop=1;jettySize=auto;html=1;fontSize=20;" edge="1" parent="1" source="pAgLassXSghN4ImzTMfQ-10">
          <mxGeometry relative="1" as="geometry">
            <mxPoint x="860.0000000000005" y="520" as="targetPoint" />
          </mxGeometry>
        </mxCell>
        <mxCell id="pAgLassXSghN4ImzTMfQ-10" value="App" style="rounded=0;whiteSpace=wrap;html=1;" vertex="1" parent="1">
          <mxGeometry x="800" y="401" width="120" height="60" as="geometry" />
        </mxCell>
        <mxCell id="pAgLassXSghN4ImzTMfQ-22" style="edgeStyle=orthogonalEdgeStyle;rounded=0;orthogonalLoop=1;jettySize=auto;html=1;fontSize=20;" edge="1" parent="1" source="pAgLassXSghN4ImzTMfQ-11">
          <mxGeometry relative="1" as="geometry">
            <mxPoint x="860.0000000000005" y="640" as="targetPoint" />
          </mxGeometry>
        </mxCell>
        <mxCell id="pAgLassXSghN4ImzTMfQ-26" style="edgeStyle=orthogonalEdgeStyle;rounded=0;orthogonalLoop=1;jettySize=auto;html=1;entryX=0.5;entryY=0;entryDx=0;entryDy=0;fontSize=20;" edge="1" parent="1" source="pAgLassXSghN4ImzTMfQ-11" target="pAgLassXSghN4ImzTMfQ-24">
          <mxGeometry relative="1" as="geometry" />
        </mxCell>
        <mxCell id="pAgLassXSghN4ImzTMfQ-30" style="edgeStyle=orthogonalEdgeStyle;rounded=0;orthogonalLoop=1;jettySize=auto;html=1;fontSize=20;" edge="1" parent="1" source="pAgLassXSghN4ImzTMfQ-11" target="pAgLassXSghN4ImzTMfQ-29">
          <mxGeometry relative="1" as="geometry" />
        </mxCell>
        <mxCell id="pAgLassXSghN4ImzTMfQ-11" value="div" style="rounded=0;whiteSpace=wrap;html=1;" vertex="1" parent="1">
          <mxGeometry x="800" y="521" width="120" height="60" as="geometry" />
        </mxCell>
        <mxCell id="pAgLassXSghN4ImzTMfQ-12" value="p" style="rounded=0;whiteSpace=wrap;html=1;" vertex="1" parent="1">
          <mxGeometry x="800" y="641" width="120" height="60" as="geometry" />
        </mxCell>
        <mxCell id="pAgLassXSghN4ImzTMfQ-13" value="WorkInProgress Fiber" style="text;html=1;resizable=0;autosize=1;align=center;verticalAlign=middle;points=[];fillColor=none;strokeColor=none;rounded=0;fontSize=20;" vertex="1" parent="1">
          <mxGeometry x="750" y="81" width="220" height="40" as="geometry" />
        </mxCell>
        <mxCell id="pAgLassXSghN4ImzTMfQ-23" value="p" style="rounded=0;whiteSpace=wrap;html=1;" vertex="1" parent="1">
          <mxGeometry x="80" y="641" width="120" height="60" as="geometry" />
        </mxCell>
        <mxCell id="pAgLassXSghN4ImzTMfQ-24" value="p" style="rounded=0;whiteSpace=wrap;html=1;" vertex="1" parent="1">
          <mxGeometry x="960" y="640" width="120" height="60" as="geometry" />
        </mxCell>
        <mxCell id="pAgLassXSghN4ImzTMfQ-27" value="p" style="rounded=0;whiteSpace=wrap;html=1;" vertex="1" parent="1">
          <mxGeometry x="400" y="640" width="120" height="60" as="geometry" />
        </mxCell>
        <mxCell id="pAgLassXSghN4ImzTMfQ-29" value="p" style="rounded=0;whiteSpace=wrap;html=1;" vertex="1" parent="1">
          <mxGeometry x="640" y="640" width="120" height="60" as="geometry" />
        </mxCell>
      </root>
    </mxGraphModel>
  </diagram>
</mxfile>
